<?xml version="1.0" encoding="UTF-8" standalone="no"?>
<svg width="48px" height="47px" viewBox="0 0 48 47" version="1.1" xmlns="http://www.w3.org/2000/svg" xmlns:xlink="http://www.w3.org/1999/xlink" xmlns:sketch="http://www.bohemiancoding.com/sketch/ns">
    <!-- Generator: Sketch 3.3.3 (12081) - http://www.bohemiancoding.com/sketch -->
    <title>box-icon</title>
    <desc>Created with Sketch.</desc>
    <defs></defs>
    <g id="Page-1" stroke="none" stroke-width="1" fill="none" fill-rule="evenodd" sketch:type="MSPage">
        <g id="Before-Click" sketch:type="MSArtboardGroup" transform="translate(-424.000000, -1268.000000)">
            <g id="Group" sketch:type="MSLayerGroup" transform="translate(424.000000, 365.000000)">
                <g id="box-icon" transform="translate(1.500000, 904.000000)" sketch:type="MSShapeGroup">
                    <ellipse id="Oval-19" stroke="#889EB7" stroke-width="2" fill="#FFFFFF" cx="22.5" cy="22.5" rx="22.5" ry="22.5"></ellipse>
                    <path d="M18.9906417,29.5187166 L14.9799465,29.5187166 C14.7027072,29.5187166 14.4786096,29.7433155 14.4786096,30.0200535 C14.4786096,30.2972928 14.7027072,30.5213904 14.9799465,30.5213904 L18.9906417,30.5213904 C19.267881,30.5213904 19.4919786,30.2972928 19.4919786,30.0200535 C19.4919786,29.7433155 19.267881,29.5187166 18.9906417,29.5187166 L18.9906417,29.5187166 Z M20.9959893,26.5106952 L14.9799465,26.5106952 C14.7027072,26.5106952 14.4786096,26.7347928 14.4786096,27.0120321 C14.4786096,27.2892714 14.7027072,27.513369 14.9799465,27.513369 L20.9959893,27.513369 C21.2732286,27.513369 21.4973262,27.2892714 21.4973262,27.0120321 C21.4973262,26.7347928 21.2732286,26.5106952 20.9959893,26.5106952 L20.9959893,26.5106952 Z M33.4722594,16.7632019 L33.4767714,16.7611965 L33.4376671,16.7125668 C33.4141043,16.6779746 33.3915441,16.6438837 33.3599599,16.6158088 L29.4660762,11.7478275 L29.4615642,11.7498329 C29.3788436,11.5858957 29.2134024,11.4705882 29.0173797,11.4705882 L15.9826203,11.4705882 C15.7865976,11.4705882 15.6211564,11.5858957 15.5384358,11.7498329 L15.5339238,11.7478275 L11.6400401,16.6158088 C11.6084559,16.6438837 11.5858957,16.6779746 11.5628342,16.7125668 L11.5232286,16.7611965 L11.528242,16.7632019 C11.4941511,16.8308824 11.4705882,16.9045789 11.4705882,16.9852941 L11.4705882,32.526738 C11.4705882,33.0802139 11.9192848,33.5294118 12.473262,33.5294118 L32.526738,33.5294118 C33.0807152,33.5294118 33.5294118,33.0802139 33.5294118,32.526738 L33.5294118,16.9852941 C33.5294118,16.9045789 33.5058489,16.8308824 33.4722594,16.7632019 L33.4722594,16.7632019 Z M23.5026738,12.473262 L24.5053476,17.486631 L24.5053476,21.4973262 L20.4946524,21.4973262 L20.4946524,17.486631 L21.4973262,12.473262 L23.5026738,12.473262 L23.5026738,12.473262 Z M32.526738,18.9906417 L32.526738,32.526738 L12.473262,32.526738 L12.473262,17.486631 L17.9879679,17.486631 C18.2652072,17.486631 18.4893048,17.2625334 18.4893048,16.9852941 C18.4893048,16.7085561 18.2652072,16.4839572 17.9879679,16.4839572 L13.0011698,16.4839572 L16.2092246,12.473262 L20.4946524,12.473262 L19.4919786,17.486631 L19.4919786,21.4973262 C19.4919786,21.4973262 19.4919786,22.5 20.4946524,22.5 L24.5053476,22.5 C24.5053476,22.5 25.5080214,22.5 25.5080214,21.4973262 L25.5080214,17.486631 L24.5053476,12.473262 L28.7907754,12.473262 L31.9993316,16.4839572 L27.0120321,16.4839572 C26.7347928,16.4839572 26.5106952,16.7085561 26.5106952,16.9852941 C26.5106952,17.2625334 26.7347928,17.486631 27.0120321,17.486631 L32.526738,17.486631 L32.526738,18.9906417 L32.526738,18.9906417 Z M28.0147059,27.513369 L28.8098262,27.513369 L26.6575869,29.6656083 C26.5668449,29.7563503 26.5106952,29.8821858 26.5106952,30.0200535 C26.5106952,30.2972928 26.7347928,30.5213904 27.0120321,30.5213904 C27.1504011,30.5213904 27.2757353,30.4647393 27.3669786,30.3744987 L29.5187166,28.2222594 L29.5187166,29.0173797 C29.5187166,29.294619 29.7428142,29.5187166 30.0200535,29.5187166 C30.2972928,29.5187166 30.5213904,29.294619 30.5213904,29.0173797 L30.5213904,27.0120321 C30.5213904,26.7347928 30.2972928,26.5106952 30.0200535,26.5106952 L28.0147059,26.5106952 C27.7374666,26.5106952 27.513369,26.7347928 27.513369,27.0120321 C27.513369,27.2892714 27.7374666,27.513369 28.0147059,27.513369 L28.0147059,27.513369 Z" id="Imported-Layers" fill="#889EB7"></path>
                </g>
            </g>
        </g>
    </g>
</svg>