<?xml version="1.0" encoding="UTF-8" standalone="no"?>
<svg width="48px" height="47px" viewBox="0 0 48 47" version="1.1" xmlns="http://www.w3.org/2000/svg" xmlns:xlink="http://www.w3.org/1999/xlink" xmlns:sketch="http://www.bohemiancoding.com/sketch/ns">
    <!-- Generator: Sketch 3.3.3 (12081) - http://www.bohemiancoding.com/sketch -->
    <title>car-icon</title>
    <desc>Created with Sketch.</desc>
    <defs></defs>
    <g id="Page-1" stroke="none" stroke-width="1" fill="none" fill-rule="evenodd" sketch:type="MSPage">
        <g id="After-Click" sketch:type="MSArtboardGroup" transform="translate(-424.000000, -1105.000000)">
            <g id="Group" sketch:type="MSLayerGroup" transform="translate(424.000000, 817.000000)">
                <g id="car-icon" transform="translate(1.500000, 289.000000)" sketch:type="MSShapeGroup">
                    <path d="M22.5,45 C34.9264069,45 45,34.9264069 45,22.5 C45,10.0735931 34.9264069,0 22.5,0 C10.0735931,0 0,10.0735931 0,22.5 C0,34.9264069 10.0735931,45 22.5,45 Z" id="Oval-19" stroke="#889EB7" stroke-width="2" fill="#FFFFFF"></path>
                    <path d="M21.2566845,25.8088235 L24.6256684,25.8088235 C24.9361765,25.8088235 25.1871658,25.5623162 25.1871658,25.2573529 C25.1871658,24.9523897 24.9361765,24.7058824 24.6256684,24.7058824 L21.2566845,24.7058824 C20.9461765,24.7058824 20.6951872,24.9523897 20.6951872,25.2573529 C20.6951872,25.5623162 20.9461765,25.8088235 21.2566845,25.8088235 L21.2566845,25.8088235 Z M34.171123,20.2941176 C34.171123,11.4705882 29.6791444,11.4705882 26.3101604,11.4705882 L22.9411765,11.4705882 L19.5721925,11.4705882 C16.2032086,11.4705882 11.7112299,11.4705882 11.7112299,20.2941176 C11.0907754,20.2941176 10.5882353,20.7882353 10.5882353,21.3970588 L10.5882353,30.7720588 C10.5882353,32.2952206 11.8448663,33.5294118 13.3957219,33.5294118 C14.9465775,33.5294118 16.2032086,32.2952206 16.2032086,30.7720588 L16.2032086,29.1176471 L29.6791444,29.1176471 L29.6791444,30.7720588 C29.6791444,32.2952206 30.9357754,33.5294118 32.486631,33.5294118 C34.0374866,33.5294118 35.2941176,32.2952206 35.2941176,30.7720588 L35.2941176,21.3970588 C35.2941176,20.7882353 34.791016,20.2941176 34.171123,20.2941176 L34.171123,20.2941176 Z M19.5721925,12.5735294 L22.9411765,12.5735294 L26.3101604,12.5735294 C29.1176471,12.5735294 33.0481283,12.5735294 33.0481283,20.2941176 L12.8342246,20.2941176 C12.8342246,12.5735294 16.7647059,12.5735294 19.5721925,12.5735294 L19.5721925,12.5735294 Z M15.0802139,30.7720588 C15.0802139,31.6858456 14.326123,32.4264706 13.3957219,32.4264706 C12.4653209,32.4264706 11.7112299,31.6858456 11.7112299,30.7720588 L11.7112299,29.1176471 L15.0802139,29.1176471 L15.0802139,30.7720588 L15.0802139,30.7720588 Z M34.171123,30.7720588 C34.171123,31.6858456 33.4170321,32.4264706 32.486631,32.4264706 C31.5562299,32.4264706 30.802139,31.6858456 30.802139,30.7720588 L30.802139,29.1176471 L34.171123,29.1176471 L34.171123,30.7720588 L34.171123,30.7720588 Z M11.7112299,21.3970588 L34.171123,21.3970588 L34.171123,28.0147059 L11.7112299,28.0147059 L11.7112299,21.3970588 Z M16.2032086,25.8088235 C16.8231016,25.8088235 17.3262032,25.3152574 17.3262032,24.7058824 C17.3262032,24.0970588 16.8231016,23.6029412 16.2032086,23.6029412 C15.5833155,23.6029412 15.0802139,24.0970588 15.0802139,24.7058824 C15.0802139,25.3152574 15.5833155,25.8088235 16.2032086,25.8088235 L16.2032086,25.8088235 Z M29.6791444,25.8088235 C30.2990374,25.8088235 30.802139,25.3152574 30.802139,24.7058824 C30.802139,24.0970588 30.2990374,23.6029412 29.6791444,23.6029412 C29.0592513,23.6029412 28.5561497,24.0970588 28.5561497,24.7058824 C28.5561497,25.3152574 29.0592513,25.8088235 29.6791444,25.8088235 L29.6791444,25.8088235 Z" id="Imported-Layers" fill="#889EB7"></path>
                </g>
            </g>
        </g>
    </g>
</svg>