<?xml version="1.0" encoding="UTF-8" standalone="no"?>
<svg width="48px" height="47px" viewBox="0 0 48 47" version="1.1" xmlns="http://www.w3.org/2000/svg" xmlns:xlink="http://www.w3.org/1999/xlink" xmlns:sketch="http://www.bohemiancoding.com/sketch/ns">
    <!-- Generator: Sketch 3.3.3 (12081) - http://www.bohemiancoding.com/sketch -->
    <title>delivery-icon</title>
    <desc>Created with Sketch.</desc>
    <defs></defs>
    <g id="Page-1" stroke="none" stroke-width="1" fill="none" fill-rule="evenodd" sketch:type="MSPage">
        <g id="After-Click" sketch:type="MSArtboardGroup" transform="translate(-424.000000, -982.000000)">
            <g id="Group" sketch:type="MSLayerGroup" transform="translate(424.000000, 817.000000)">
                <g id="delivery-icon" transform="translate(1.500000, 166.000000)" sketch:type="MSShapeGroup">
                    <path d="M22.5,45 C34.9264069,45 45,34.9264069 45,22.5 C45,10.0735931 34.9264069,0 22.5,0 C10.0735931,0 0,10.0735931 0,22.5 C0,34.9264069 10.0735931,45 22.5,45 Z" id="Oval-19" stroke="#4FBD81" stroke-width="2" fill="#FFFFFF"></path>
                    <path d="M32.0294118,16.9251337 L21.3088235,16.9251337 L21.3088235,15.7219251 L26.6691176,15.7219251 C26.9984779,15.7219251 27.2647059,15.453008 27.2647059,15.1203209 C27.2647059,14.9783422 27.2087206,14.8538102 27.1277206,14.7503342 L27.1342721,14.7449198 L25.6262426,12.7139037 L27.1342721,10.6834893 L27.1277206,10.6774733 C27.2087206,10.5745989 27.2647059,10.4494652 27.2647059,10.3074866 C27.2647059,9.97479947 26.9984779,9.70588235 26.6691176,9.70588235 L20.7132353,9.70588235 C20.383875,9.70588235 20.1176471,9.97479947 20.1176471,10.3074866 L20.1176471,16.9251337 L12.9705882,16.9251337 C11.6549338,16.9251337 10.5882353,18.002607 10.5882353,19.3315508 L10.5882353,30.1604278 C10.5882353,31.4893717 11.6549338,32.5668449 12.9705882,32.5668449 L23.6911765,32.5668449 L23.6911765,36.1764706 L24.8823529,36.1764706 L24.8823529,32.5668449 L27.2647059,32.5668449 L27.2647059,36.1764706 L28.4558824,36.1764706 L28.4558824,32.5668449 L32.0294118,32.5668449 C33.3450662,32.5668449 34.4117647,31.4893717 34.4117647,30.1604278 L34.4117647,19.3315508 C34.4117647,18.002607 33.3450662,16.9251337 32.0294118,16.9251337 L32.0294118,16.9251337 Z M21.3088235,10.9090909 L25.4785368,10.9090909 L24.4171985,12.3385027 L24.42375,12.3439171 C24.34275,12.447393 24.2867647,12.5719251 24.2867647,12.7139037 C24.2867647,12.8558824 24.34275,12.981016 24.42375,13.0838904 L24.4171985,13.0899064 L25.4785368,14.5187166 L21.3088235,14.5187166 L21.3088235,10.9090909 L21.3088235,10.9090909 Z M14.1617647,31.3636364 L12.9705882,31.3636364 C12.3124632,31.3636364 11.7794118,30.8252005 11.7794118,30.1604278 L11.7794118,19.3315508 C11.7794118,18.6667781 12.3124632,18.1283422 12.9705882,18.1283422 L14.1617647,18.1283422 L14.1617647,31.3636364 L14.1617647,31.3636364 Z M33.2205882,30.1604278 C33.2205882,30.8252005 32.6869412,31.3636364 32.0294118,31.3636364 L15.3529412,31.3636364 L15.3529412,18.1283422 L20.1176471,18.1283422 L20.1176471,23.0512701 C19.4255735,23.3009358 18.9264706,23.9614973 18.9264706,24.7459893 C18.9264706,25.7428476 19.7263456,26.5508021 20.7132353,26.5508021 C21.700125,26.5508021 22.5,25.7428476 22.5,24.7459893 C22.5,23.9608957 22.0008971,23.3009358 21.3088235,23.0512701 L21.3088235,18.1283422 L32.0294118,18.1283422 C32.6869412,18.1283422 33.2205882,18.6667781 33.2205882,19.3315508 L33.2205882,30.1604278 L33.2205882,30.1604278 Z" id="Imported-Layers" fill="#50BD81"></path>
                </g>
            </g>
        </g>
    </g>
</svg>