<?xml version="1.0" encoding="UTF-8" standalone="no"?>
<svg width="48px" height="48px" viewBox="0 0 48 48" version="1.1" xmlns="http://www.w3.org/2000/svg" xmlns:xlink="http://www.w3.org/1999/xlink" xmlns:sketch="http://www.bohemiancoding.com/sketch/ns">
    <!-- Generator: Sketch 3.3.3 (12081) - http://www.bohemiancoding.com/sketch -->
    <title>home-icon</title>
    <desc>Created with Sketch.</desc>
    <defs></defs>
    <g id="Page-1" stroke="none" stroke-width="1" fill="none" fill-rule="evenodd" sketch:type="MSPage">
        <g id="After-Click" sketch:type="MSArtboardGroup" transform="translate(-424.000000, -1844.000000)">
            <g id="Group" sketch:type="MSLayerGroup" transform="translate(424.000000, 817.000000)">
                <g id="home-icon" transform="translate(1.500000, 1028.500000)" sketch:type="MSShapeGroup">
                    <path d="M22.5,45 C34.9264069,45 45,34.9264069 45,22.5 C45,10.0735931 34.9264069,0 22.5,0 C10.0735931,0 0,10.0735931 0,22.5 C0,34.9264069 10.0735931,45 22.5,45 Z" id="Oval-19" stroke="#889EB7" stroke-width="2" fill="#FFFFFF"></path>
                    <path d="M35.1357754,23.1146791 L35.1368984,23.1129947 L23.3454545,10.760615 L23.3443316,10.761738 C23.2415775,10.655615 23.1000802,10.5882353 22.9411765,10.5882353 C22.7828342,10.5882353 22.6407754,10.655615 22.5380214,10.761738 L22.5368984,10.760615 L10.7454545,23.1129947 L10.7465775,23.1146791 C10.6494385,23.2151872 10.5882353,23.3510695 10.5882353,23.5026738 C10.5882353,23.8131818 10.8392246,24.0641711 11.1497326,24.0641711 C11.3086364,24.0641711 11.4501337,23.9973529 11.5528877,23.8912299 L11.5540107,23.8923529 L12.8342246,22.5509358 L12.8342246,34.171123 C12.8342246,34.791016 13.3373262,35.2941176 13.9572193,35.2941176 L31.9251337,35.2941176 C32.5455882,35.2941176 33.0481283,34.791016 33.0481283,34.171123 L33.0481283,22.5509358 L34.3283422,23.8923529 L34.3294652,23.8912299 C34.4322193,23.9973529 34.5737166,24.0641711 34.7326203,24.0641711 C35.0431283,24.0641711 35.2941176,23.8131818 35.2941176,23.5026738 C35.2941176,23.3510695 35.2329144,23.2151872 35.1357754,23.1146791 L35.1357754,23.1146791 Z M26.3101604,29.1176471 L26.3101604,34.171123 L19.5721925,34.171123 L19.5721925,29.1176471 L19.6289037,29.1176471 C19.5980214,28.9345989 19.5721925,28.7487433 19.5721925,28.5561497 C19.5721925,26.6953476 21.0803743,25.1871658 22.9411765,25.1871658 C24.8014171,25.1871658 26.3101604,26.6953476 26.3101604,28.5561497 C26.3101604,28.7487433 26.2843316,28.9345989 26.2534492,29.1176471 L26.3101604,29.1176471 L26.3101604,29.1176471 Z M31.9251337,34.171123 L27.4331551,34.171123 L27.4331551,28.5561497 C27.4331551,26.0754545 25.4218717,24.0641711 22.9411765,24.0641711 C20.4604813,24.0641711 18.4491979,26.0754545 18.4491979,28.5561497 L18.4491979,34.171123 L13.9572193,34.171123 L13.9572193,21.3751604 L22.9411765,11.9627807 L31.9251337,21.3751604 L31.9251337,34.171123 L31.9251337,34.171123 Z" id="Imported-Layers" fill="#8BA1B9"></path>
                </g>
            </g>
        </g>
    </g>
</svg>