<?xml version="1.0" encoding="UTF-8" standalone="no"?>
<svg width="48px" height="47px" viewBox="0 0 48 47" version="1.1" xmlns="http://www.w3.org/2000/svg" xmlns:xlink="http://www.w3.org/1999/xlink" xmlns:sketch="http://www.bohemiancoding.com/sketch/ns">
    <!-- Generator: Sketch 3.3.3 (12081) - http://www.bohemiancoding.com/sketch -->
    <title>pin-incon</title>
    <desc>Created with Sketch.</desc>
    <defs></defs>
    <g id="Page-1" stroke="none" stroke-width="1" fill="none" fill-rule="evenodd" sketch:type="MSPage">
        <g id="Before-Click" sketch:type="MSArtboardGroup" transform="translate(-424.000000, -899.000000)">
            <g id="Group" sketch:type="MSLayerGroup" transform="translate(424.000000, 365.000000)">
                <g id="pin-incon" transform="translate(1.500000, 535.000000)" sketch:type="MSShapeGroup">
                    <circle id="Oval-19" stroke="#889EB7" stroke-width="2" fill="#FFFFFF" cx="22.5" cy="22.5" r="22.5"></circle>
                    <path d="M22.4814391,14.3664305 C20.1631197,14.3664305 18.2830777,16.1866845 18.2830777,18.4332152 C18.2830777,20.6791644 20.1631197,22.5 22.4814391,22.5 C24.7997584,22.5 26.6792017,20.6791644 26.6792017,18.4332152 C26.6792017,16.1866845 24.7997584,14.3664305 22.4814391,14.3664305 L22.4814391,14.3664305 Z M22.4814391,21.332246 C20.8295168,21.332246 19.4907353,20.0307353 19.4907353,18.424492 C19.4907353,16.8182487 20.8295168,15.516738 22.4814391,15.516738 C24.1327626,15.516738 25.4721429,16.8182487 25.4721429,18.424492 C25.4721429,20.0307353 24.1327626,21.332246 22.4814391,21.332246 L22.4814391,21.332246 Z M22.5,9.70588235 C17.8705462,9.70588235 14.1176471,13.3504612 14.1176471,17.8475936 C14.1176471,24.8262032 22.5,35.2941176 22.5,35.2941176 C22.5,35.2941176 30.8823529,24.8262032 30.8823529,17.8475936 C30.8823529,13.3504612 27.1294538,9.70588235 22.5,9.70588235 L22.5,9.70588235 Z M15.3151261,17.8475936 C15.3151261,13.9936564 18.5321534,10.868984 22.5,10.868984 C26.4678466,10.868984 29.6848739,13.9936564 29.6848739,17.8475936 C29.6848739,23.6631016 22.5,33.4523463 22.5,33.4523463 C22.5,33.4523463 15.3151261,23.6631016 15.3151261,17.8475936 L15.3151261,17.8475936 Z" id="Imported-Layers" fill="#8A9FB8"></path>
                </g>
            </g>
        </g>
    </g>
</svg>